<svg aria-hidden="true" style="position: absolute; width: 0; height: 0; overflow: hidden;" version="1.1"
  xmlns="http://www.w3.org/2000/svg" xmlns:xlink="http://www.w3.org/1999/xlink">
  <defs>

    <symbol id="icon-burger" viewBox="0 0 32 32">
      <path d="M28 8v2.667h-24v-2.667h24zM4 24h24v-2.667h-24v2.667zM4 17.333h24v-2.667h-24v2.667z"></path>
    </symbol>
    <symbol id="icon-close" viewBox="0 0 32 32">
      <path
        d="M26.080 4.442c0.205-0.137 0.452-0.198 0.697-0.174s0.475 0.133 0.649 0.308c0.174 0.175 0.283 0.404 0.307 0.65s-0.038 0.492-0.175 0.697l-0.137 0.166-9.914 9.911 9.914 9.914 0.137 0.166c0.136 0.205 0.197 0.451 0.172 0.696s-0.133 0.474-0.307 0.648c-0.174 0.174-0.403 0.283-0.648 0.307s-0.491-0.036-0.696-0.172l-0.166-0.137-9.914-9.914-9.911 9.914c-0.098 0.102-0.216 0.183-0.346 0.239s-0.27 0.085-0.412 0.087c-0.142 0.001-0.282-0.026-0.413-0.079s-0.25-0.133-0.35-0.233-0.179-0.219-0.233-0.35c-0.054-0.131-0.081-0.272-0.079-0.413s0.031-0.282 0.087-0.412c0.056-0.13 0.137-0.248 0.239-0.346l9.912-9.914-9.912-9.911-0.139-0.166c-0.138-0.205-0.201-0.452-0.177-0.698s0.133-0.477 0.307-0.652c0.175-0.175 0.405-0.284 0.652-0.307s0.493 0.039 0.698 0.177l0.166 0.139 9.911 9.912 9.914-9.912 0.166-0.139z">
      </path>

      <symbol id="icon-arr" viewBox="0 0 37 32">
        <path
          d="M19.807 30.546l-2.625-2.591 10.807-10.807h-27.989v-3.75h27.989l-10.807-10.773 2.625-2.625 15.273 15.273-15.273 15.273z">
        </path>
      </symbol>

      <symbol id="icon-contact" viewBox="0 0 32 32">
        <path stroke-linejoin="round" stroke-linecap="round" stroke-miterlimit="4" stroke-width="2.6667"
          d="M28 20c0 0.707-0.281 1.386-0.781 1.886s-1.178 0.781-1.886 0.781h-16l-5.333 5.333v-21.333c0-0.707 0.281-1.386 0.781-1.886s1.178-0.781 1.886-0.781h18.667c0.707 0 1.386 0.281 1.886 0.781s0.781 1.178 0.781 1.886v13.333z">
        </path>
      </symbol>

      <symbol id="arow-forward" viewBox="0 0 32 32">
        <path d="M10 16H22M16 10L22 16L16 22" stroke="currentColor" stroke-width="2.5" stroke-linecap="round"
          stroke-linejoin="round" />
      </symbol>

      <symbol id="arow-back" viewBox="0 0 32 32">
        <path d="M22 16H10M16 10L10 16L16 22" stroke="currentColor" stroke-width="2.5" stroke-linecap="round"
          stroke-linejoin="round" />
      </symbol>

  </defs>
</svg>