<svg aria-hidden="true" style="position: absolute; width: 0; height: 0; overflow: hidden;" version="1.1"
  xmlns="http://www.w3.org/2000/svg" xmlns:xlink="http://www.w3.org/1999/xlink">
  <defs>

    <symbol id="icon-burger" viewBox="0 0 32 32">
      <path d="M27 9.335h-22c-0.552 0-1 0.448-1 1s0.448 1 1 1h22c0.552 0 1-0.448 1-1s-0.448-1-1-1z"></path>
      <path d="M23 15.001h-18c-0.552 0-1 0.448-1 1s0.448 1 1 1h18c0.552 0 1-0.448 1-1s-0.448-1-1-1z"></path>
      <path d="M27 20.665h-22c-0.552 0-1 0.448-1 1s0.448 1 1 1h22c0.552 0 1-0.448 1-1s-0.448-1-1-1z"></path>
    </symbol>
    <symbol id="icon-close" viewBox="0 0 32 32">
      <path
        d="M26.080 4.442c0.205-0.137 0.452-0.198 0.697-0.174s0.475 0.133 0.649 0.308c0.174 0.175 0.283 0.404 0.307 0.65s-0.038 0.492-0.175 0.697l-0.137 0.166-9.914 9.911 9.914 9.914 0.137 0.166c0.136 0.205 0.197 0.451 0.172 0.696s-0.133 0.474-0.307 0.648c-0.174 0.174-0.403 0.283-0.648 0.307s-0.491-0.036-0.696-0.172l-0.166-0.137-9.914-9.914-9.911 9.914c-0.098 0.102-0.216 0.183-0.346 0.239s-0.27 0.085-0.412 0.087c-0.142 0.001-0.282-0.026-0.413-0.079s-0.25-0.133-0.35-0.233-0.179-0.219-0.233-0.35c-0.054-0.131-0.081-0.272-0.079-0.413s0.031-0.282 0.087-0.412c0.056-0.13 0.137-0.248 0.239-0.346l9.912-9.914-9.912-9.911-0.139-0.166c-0.138-0.205-0.201-0.452-0.177-0.698s0.133-0.477 0.307-0.652c0.175-0.175 0.405-0.284 0.652-0.307s0.493 0.039 0.698 0.177l0.166 0.139 9.911 9.912 9.914-9.912 0.166-0.139z">
      </path>
    </symbol>
    <symbol id="icon-f1" viewBox="0 0 32 32">
      <path fill="none" stroke="#0d9e8f" style="stroke: var(--color1, #0d9e8f)" stroke-linejoin="round"
        stroke-linecap="round" stroke-miterlimit="4" stroke-width="2.8070"
        d="M29.474 15.439h-3.481c-0.613-0.001-1.21 0.198-1.7 0.568s-0.844 0.89-1.009 1.481l-3.298 11.733c-0.021 0.073-0.066 0.137-0.126 0.182s-0.135 0.070-0.211 0.070c-0.076 0-0.15-0.025-0.211-0.070s-0.105-0.109-0.126-0.182l-7.747-27.565c-0.021-0.073-0.066-0.137-0.126-0.182s-0.135-0.070-0.211-0.070c-0.076 0-0.15 0.025-0.211 0.070s-0.105 0.11-0.126 0.182l-3.298 11.733c-0.165 0.588-0.517 1.107-1.004 1.476s-1.080 0.571-1.691 0.573h-3.495">
      </path>
    </symbol>
    <symbol id="icon-f2" viewBox="0 0 32 32">
      <path stroke-linejoin="round" stroke-linecap="round" stroke-miterlimit="4" stroke-width="2.6667"
        d="M24 28c0-2.829-1.124-5.542-3.124-7.543s-4.713-3.124-7.542-3.124c-2.829 0-5.542 1.124-7.542 3.124s-3.124 4.714-3.124 7.543">
      </path>
      <path stroke-linejoin="round" stroke-linecap="round" stroke-miterlimit="4" stroke-width="2.6667"
        d="M13.333 17.333c3.682 0 6.667-2.985 6.667-6.667s-2.985-6.667-6.667-6.667c-3.682 0-6.667 2.985-6.667 6.667s2.985 6.667 6.667 6.667z">
      </path>
      <path stroke-linejoin="round" stroke-linecap="round" stroke-miterlimit="4" stroke-width="2.6667"
        d="M29.333 26.667c0-4.493-2.667-8.667-5.333-10.667 0.876-0.658 1.577-1.521 2.041-2.514s0.675-2.085 0.615-3.179-0.388-2.157-0.955-3.094c-0.568-0.937-1.358-1.72-2.301-2.279">
      </path>
    </symbol>
    <symbol id="icon-f3" viewBox="0 0 32 32">
      <path fill="none" stroke="#f4864a" style="stroke: var(--color2, #f4864a)" stroke-linejoin="round"
        stroke-linecap="round" stroke-miterlimit="4" stroke-width="2.6667"
        d="M16.667 29.333h7.333c0.707 0 1.385-0.281 1.886-0.781s0.781-1.178 0.781-1.886v-17.333l-6.667-6.667h-12c-0.707 0-1.386 0.281-1.886 0.781s-0.781 1.178-0.781 1.886v12.667">
      </path>
      <path fill="none" stroke="#f4864a" style="stroke: var(--color2, #f4864a)" stroke-linejoin="round"
        stroke-linecap="round" stroke-miterlimit="4" stroke-width="2.6667"
        d="M18.666 2.667v5.333c0 0.707 0.281 1.386 0.781 1.886s1.178 0.781 1.886 0.781h5.333"></path>
      <path fill="none" stroke="#f4864a" style="stroke: var(--color2, #f4864a)" stroke-linejoin="round"
        stroke-linecap="round" stroke-miterlimit="4" stroke-width="2.6667"
        d="M17.837 20.835c0.263-0.263 0.472-0.575 0.614-0.919s0.216-0.712 0.216-1.084-0.073-0.74-0.216-1.084c-0.142-0.344-0.351-0.656-0.614-0.919s-0.575-0.472-0.919-0.614c-0.344-0.142-0.712-0.216-1.084-0.216s-0.74 0.073-1.084 0.216c-0.344 0.142-0.656 0.351-0.919 0.614l-6.68 6.683c-0.317 0.317-0.549 0.708-0.675 1.139l-1.116 3.827c-0.033 0.115-0.035 0.236-0.006 0.352s0.090 0.221 0.174 0.306 0.19 0.145 0.306 0.174c0.116 0.030 0.237 0.028 0.352-0.006l3.827-1.116c0.43-0.126 0.822-0.358 1.139-0.675l6.684-6.679z">
      </path>
    </symbol>
    <symbol id="icon-f4" viewBox="0 0 32 32">
      <path fill="none" stroke="#0d9e8f" style="stroke: var(--color1, #0d9e8f)" stroke-linejoin="round"
        stroke-linecap="round" stroke-miterlimit="4" stroke-width="2.6667"
        d="M8 12h-2c-0.884 0-1.732-0.351-2.357-0.976s-0.976-1.473-0.976-2.357c0-0.884 0.351-1.732 0.976-2.357s1.473-0.976 2.357-0.976h2">
      </path>
      <path fill="none" stroke="#0d9e8f" style="stroke: var(--color1, #0d9e8f)" stroke-linejoin="round"
        stroke-linecap="round" stroke-miterlimit="4" stroke-width="2.6667"
        d="M24 12h2c0.884 0 1.732-0.351 2.357-0.976s0.976-1.473 0.976-2.357c0-0.884-0.351-1.732-0.976-2.357s-1.473-0.976-2.357-0.976h-2">
      </path>
      <path fill="none" stroke="#0d9e8f" style="stroke: var(--color1, #0d9e8f)" stroke-linejoin="round"
        stroke-linecap="round" stroke-miterlimit="4" stroke-width="2.6667" d="M5.334 29.333h21.333"></path>
      <path fill="none" stroke="#0d9e8f" style="stroke: var(--color1, #0d9e8f)" stroke-linejoin="round"
        stroke-linecap="round" stroke-miterlimit="4" stroke-width="2.6667"
        d="M13.334 19.547v3.12c0 0.733-0.627 1.307-1.293 1.613-1.573 0.72-2.707 2.707-2.707 5.053"></path>
      <path fill="none" stroke="#0d9e8f" style="stroke: var(--color1, #0d9e8f)" stroke-linejoin="round"
        stroke-linecap="round" stroke-miterlimit="4" stroke-width="2.6667"
        d="M18.666 19.547v3.12c0 0.733 0.627 1.307 1.293 1.613 1.573 0.72 2.707 2.707 2.707 5.053"></path>
      <path fill="none" stroke="#0d9e8f" style="stroke: var(--color1, #0d9e8f)" stroke-linejoin="round"
        stroke-linecap="round" stroke-miterlimit="4" stroke-width="2.6667"
        d="M24 2.667h-16v9.333c0 2.122 0.843 4.157 2.343 5.657s3.535 2.343 5.657 2.343c2.122 0 4.157-0.843 5.657-2.343s2.343-3.535 2.343-5.657v-9.333z">
      </path>
    </symbol>
    <symbol id="icon-f5" viewBox="0 0 32 32">
      <path fill="none" stroke="#f4864a" style="stroke: var(--color2, #f4864a)" stroke-linejoin="round"
        stroke-linecap="round" stroke-miterlimit="4" stroke-width="2.6667"
        d="M5.333 18.667c-0.252 0.001-0.5-0.070-0.713-0.204s-0.385-0.326-0.494-0.554c-0.109-0.228-0.151-0.481-0.121-0.732s0.13-0.488 0.289-0.684l13.2-13.6c0.099-0.114 0.234-0.192 0.383-0.219s0.302-0.004 0.436 0.068c0.133 0.071 0.238 0.186 0.298 0.325s0.070 0.294 0.030 0.44l-2.56 8.027c-0.076 0.202-0.101 0.419-0.074 0.633s0.105 0.418 0.229 0.595c0.123 0.177 0.288 0.321 0.479 0.421s0.404 0.151 0.62 0.15h9.333c0.252-0.001 0.5 0.070 0.713 0.204s0.385 0.326 0.494 0.554c0.109 0.228 0.151 0.481 0.121 0.732s-0.13 0.488-0.289 0.684l-13.2 13.6c-0.099 0.114-0.234 0.192-0.383 0.219s-0.302 0.004-0.436-0.068c-0.133-0.071-0.238-0.186-0.298-0.325s-0.070-0.294-0.030-0.44l2.56-8.027c0.075-0.202 0.101-0.419 0.074-0.633s-0.105-0.418-0.229-0.595c-0.123-0.177-0.288-0.321-0.479-0.421s-0.404-0.151-0.62-0.151h-9.333z">
      </path>
    </symbol>
    <symbol id="icon-paragraph" viewBox="0 0 32 32">
      <path fill="#0d9e8f" style="fill: var(--color1, #0d9e8f)"
        d="M30.35 7.2c0 1.333-0.433 3.9-1.3 7.7s-1.833 8.733-2.9 14.8h-3.1c-0.767-4.933-1.633-9.633-2.6-14.1-0.933-4.467-1.4-7.267-1.4-8.4 0-1.533 0.467-2.85 1.4-3.95s2.35-1.65 4.25-1.65c1.833 0 3.233 0.55 4.2 1.65s1.45 2.417 1.45 3.95zM11.25 7.2c0 1.333-0.433 3.9-1.3 7.7s-1.833 8.733-2.9 14.8h-3.050c-0.9-5.667-1.8-10.5-2.7-14.5-0.867-4.033-1.3-6.7-1.3-8 0-1.533 0.467-2.85 1.4-3.95s2.35-1.65 4.25-1.65c1.8 0 3.183 0.55 4.15 1.65s1.45 2.417 1.45 3.95z">
      </path>
    </symbol>

    <symbol id="arow-forward" viewBox="0 0 32 32">
      <path d="M10 16H22M16 10L22 16L16 22" stroke="currentColor" stroke-width="2.5" stroke-linecap="round"
        stroke-linejoin="round" />
    </symbol>

    <symbol id="arow-back" viewBox="0 0 32 32">
      <path d="M22 16H10M16 10L10 16L16 22" stroke="currentColor" stroke-width="2.5" stroke-linecap="round"
        stroke-linejoin="round" />
    </symbol>

  </defs>
</svg>